<?xml version="1.0" encoding="UTF-8" standalone="no"?>
<svg width="60px" height="60px" viewBox="0 0 60 60" version="1.1" xmlns="http://www.w3.org/2000/svg" xmlns:xlink="http://www.w3.org/1999/xlink" xmlns:sketch="http://www.bohemiancoding.com/sketch/ns">
    <!-- Generator: Sketch 3.2.2 (9983) - http://www.bohemiancoding.com/sketch -->
    <title>Peopleweb</title>
    <desc>Created with Sketch.</desc>
    <defs></defs>
    <g id="stroked" stroke="none" stroke-width="1" fill="none" fill-rule="evenodd" sketch:type="MSPage">
        <g id="Tech" sketch:type="MSLayerGroup" transform="translate(-238.000000, -1929.000000)" stroke="#f5f8fa" stroke-width="2" stroke-linejoin="round">
            <g id="Peopleweb" transform="translate(268.500000, 1959.000000) scale(-1, 1) translate(-268.500000, -1959.000000) translate(245.000000, 1933.000000)" sketch:type="MSShapeGroup">
                <path d="M40,20 C40,8.954305 31.045695,0 20,0 C8.954305,0 0,8.954305 0,20 C0,31.045695 8.954305,40 20,40" id="Oval-597"></path>
                <path d="M19.9660272,38.2352941 L19.9660272,0" id="Line-199" stroke-linecap="square"></path>
                <path d="M39.4117647,19.0375489 L1.76470588,19.0375489" id="Line-200" stroke-linecap="square"></path>
                <path d="M31.7647059,20.5882353 C31.7647059,9.86741368 26.4974676,1.17647059 20,1.17647059 C13.5025324,1.17647059 8.23529412,9.86741368 8.23529412,20.5882353 C8.23529412,31.3090569 13.5025324,40 20,40" id="Oval-596" stroke-linecap="round"></path>
                <path d="M24.2725047,52 C25.23555,47.6556738 28.6556738,44.23555 33,43.2725047 L33,40.6264018 L33,40.6264018 C30.1229613,39.742364 27.8964471,37.3724403 27.2159284,34.412102 L27.2159284,34.412102 C26.4782081,33.8655567 26,32.9886241 26,32 C26,30.8465467 26.6509604,29.8451334 27.6055473,29.3430937 C28.8588389,26.2118276 31.9211195,24 35.5,24 C39.0788805,24 42.1411611,26.2118276 43.3944527,29.3430937 C44.3490396,29.8451334 45,30.8465467 45,32 C45,32.9886241 44.5217919,33.8655567 43.7840716,34.412102 L43.7840716,34.412102 C43.1035529,37.3724403 40.8770387,39.742364 38,40.6264018 L38,43.2725047 L38,43.2725047 C42.3443262,44.23555 45.76445,47.6556738 46.7274953,52 L24.2725047,52 Z" id="Oval-602" stroke-linecap="round"></path>
            </g>
        </g>
    </g>
</svg>