<?xml version="1.0" encoding="iso-8859-1"?>
<!DOCTYPE svg PUBLIC "-//W3C//DTD SVG 1.1//EN" "http://www.w3.org/Graphics/SVG/1.1/DTD/svg11.dtd">
<svg 
 version="1.1" xmlns="http://www.w3.org/2000/svg" xmlns:xlink="http://www.w3.org/1999/xlink" x="0px" y="0px" width="512px"
	 height="512px" viewBox="0 0 512 512" style="enable-background:new 0 0 512 512;" xml:space="preserve"
><g id="de95281e9f52527e65bb740c590194d1"><g></g><path style="display: inline; fill:#999999;" d="M298.583,43.083c0,23.521-19.063,42.583-42.583,42.583s-42.583-19.063-42.583-42.583
		S232.479,0.5,256,0.5S298.583,19.563,298.583,43.083z M256,426.333c-23.521,0-42.583,19.063-42.583,42.584S232.479,511.5,256,511.5
		s42.583-19.063,42.583-42.583S279.521,426.333,256,426.333z M75.333,75.337c-16.63,16.626-16.63,43.59,0,60.22
		c16.63,16.63,43.594,16.63,60.224,0s16.63-43.59,0-60.22C118.927,58.703,91.963,58.703,75.333,75.337z M376.443,376.443
		c-16.63,16.63-16.63,43.594,0,60.22c16.63,16.634,43.594,16.634,60.22,0c16.634-16.626,16.634-43.59,0-60.22
		C420.033,359.813,393.073,359.813,376.443,376.443z M0.5,256c0,23.521,19.063,42.583,42.583,42.583
		c23.521,0,42.583-19.063,42.583-42.583s-19.063-42.583-42.583-42.583C19.563,213.417,0.5,232.479,0.5,256z M426.333,256
		c0,23.521,19.063,42.583,42.584,42.583S511.5,279.521,511.5,256s-19.063-42.583-42.583-42.583S426.333,232.479,426.333,256z
		 M75.337,436.663c16.63,16.634,43.59,16.634,60.22,0c16.63-16.63,16.63-43.59,0-60.22s-43.59-16.63-60.22,0
		C58.703,393.073,58.703,420.033,75.337,436.663z M376.443,135.557c16.63,16.63,43.594,16.63,60.22,0
		c16.634-16.63,16.634-43.59,0-60.22c-16.626-16.634-43.59-16.634-60.22,0C359.813,91.967,359.813,118.927,376.443,135.557z"></path></g></svg>