<?xml version="1.0" encoding="UTF-8" standalone="no"?>
<svg width="60px" height="60px" viewBox="0 0 60 60" version="1.1" xmlns="http://www.w3.org/2000/svg" xmlns:xlink="http://www.w3.org/1999/xlink" xmlns:sketch="http://www.bohemiancoding.com/sketch/ns">
    <!-- Generator: Sketch 3.2.2 (9983) - http://www.bohemiancoding.com/sketch -->
    <title>Brain</title>
    <desc>Created with Sketch.</desc>
    <defs></defs>
    <g id="stroked" stroke="none" stroke-width="1" fill="none" fill-rule="evenodd" sketch:type="MSPage">
        <g id="Science" sketch:type="MSLayerGroup" transform="translate(-20.000000, -507.000000)" stroke="#828080" stroke-width="2">
            <g id="Brain" transform="translate(23.000000, 512.000000)" sketch:type="MSShapeGroup">
                <path d="M27.5,1.4292836 C28.4018753,0.545159159 29.6372733,0 31,0 C33.7614237,0 36,2.23857625 36,5 C36,5.71677648 35.849175,6.39832589 35.5775306,7.01464276 L35.5775306,7.01464276 C35.717093,7.00493496 35.8579702,7 36,7 C38.6331143,7 40.8700717,8.69614878 41.6778825,11.0554564 C41.9471374,11.0188592 42.2215236,11 42.5,11 C46.0898509,11 49,14.1340068 49,18 C49,18.4576169 48.9592247,18.9049777 48.8813733,19.3380985 L48.8813733,19.3380985 C52.4166966,20.3678471 55,23.6322421 55,27.5 C55,32.1405317 51.2812897,35.9125121 46.6613102,35.9985 L46.6613102,35.9985 C47.5126974,37.4697058 48,39.1779451 48,41 C48,46.5228475 43.5228475,51 38,51 C34.9559189,51 32.2295189,49.6398456 30.3953901,47.4941268 L30.3953901,47.4941268 C29.4917043,47.821499 28.5166977,48 27.5,48 C26.4833023,48 25.5082957,47.821499 24.6046099,47.4941268 C22.7704811,49.6398456 20.0440811,51 17,51 C11.4771525,51 7,46.5228475 7,41 C7,39.1779451 7.48730259,37.4697058 8.33868984,35.9985 L8.33868984,35.9985 C3.71871034,35.9125121 0,32.1405317 0,27.5 C0,23.6322421 2.5833034,20.3678471 6.11862665,19.3380985 C6.04077531,18.9049777 6,18.4576169 6,18 C6,14.1913611 8.82444197,11.0931509 12.3406832,11.0020615 L12.3406832,11.0020615 C13.1637737,8.67059996 15.3867921,7 18,7 C18.5193458,7 19.0232802,7.06598386 19.5038771,7.19002553 C19.1811211,6.52864418 19,5.78547364 19,5 C19,2.23857625 21.2385763,0 24,0 C25.3627267,0 26.5981247,0.545159159 27.5,1.4292836 L27.5,1.4292836 Z" id="Oval-103" stroke-linecap="round" stroke-linejoin="round"></path>
                <g id="Group" transform="translate(5.000000, 9.000000)">
                    <path d="M12.6910424,12.517082 C12.6910424,12.517082 8.07316011,12.3251684 7.352737,16.0797387 C6.63231388,19.8343089 6.55339616,22.2227656 6.55339616,22.2227656" id="Path-110" stroke-linecap="square"></path>
                    <path d="M6.61938323,18.2274105 C6.61938323,18.2274105 3.63426073,19.8894655 0.299389255,18.9819117" id="Path-111" stroke-linecap="square"></path>
                    <path d="M14.4049719,23.5229511 C14.4049719,23.5229511 17.0655403,25.58146 14.9977462,28.7588084 C12.9299521,31.9361568 11.4062999,33.7764023 11.4062999,33.7764023" id="Path-113" stroke-linecap="square"></path>
                    <path d="M17.3269699,16.6624035 C17.3269699,16.6624035 18.0388842,19.4835055 20.6477806,20.548864" id="Path-112" stroke-linecap="square"></path>
                    <path d="M19.8890036,0.214970004 C18.568213,4.92653149 15.1222594,6.48848318 11.0388597,8.04396642" id="Path"></path>
                </g>
                <g id="Group-3" transform="translate(39.500000, 26.000000) scale(-1, 1) translate(-39.500000, -26.000000) translate(29.000000, 9.000000)">
                    <path d="M12.6910424,12.517082 C12.6910424,12.517082 8.07316011,12.3251684 7.352737,16.0797387 C6.63231388,19.8343089 6.55339616,22.2227656 6.55339616,22.2227656" id="Path-110" stroke-linecap="square"></path>
                    <path d="M6.61938323,18.2274105 C6.61938323,18.2274105 3.63426073,19.8894655 0.299389255,18.9819117" id="Path-111" stroke-linecap="square"></path>
                    <path d="M14.4049719,23.5229511 C14.4049719,23.5229511 17.0655403,25.58146 14.9977462,28.7588084 C12.9299521,31.9361568 11.4062999,33.7764023 11.4062999,33.7764023" id="Path-113" stroke-linecap="square"></path>
                    <path d="M17.3269699,16.6624035 C17.3269699,16.6624035 18.0388842,19.4835055 20.6477806,20.548864" id="Path-112" stroke-linecap="square"></path>
                    <path d="M19.8890036,0.214970004 C18.568213,4.92653149 15.1222594,6.48848318 11.0388597,8.04396642" id="Path"></path>
                </g>
                <path d="M25.1969022,40.9171742 C28.2063588,38.8046341 29.1964801,39.4535312 30.6488013,41.1892012" id="Path"></path>
            </g>
        </g>
    </g>
</svg>