<?xml version="1.0" encoding="UTF-8" standalone="no"?>
<svg width="60px" height="60px" viewBox="0 0 60 60" version="1.1" xmlns="http://www.w3.org/2000/svg" xmlns:xlink="http://www.w3.org/1999/xlink" xmlns:sketch="http://www.bohemiancoding.com/sketch/ns">
    <!-- Generator: Sketch 3.2.2 (9983) - http://www.bohemiancoding.com/sketch -->
    <title>Planets</title>
    <desc>Created with Sketch.</desc>
    <defs></defs>
    <g id="stroked" stroke="none" stroke-width="1" fill="none" fill-rule="evenodd" sketch:type="MSPage">
        <g id="Science" sketch:type="MSLayerGroup" transform="translate(-140.000000, -147.000000)" stroke="#828080" stroke-width="2" stroke-linecap="round" stroke-linejoin="round">
            <g id="Planets" transform="translate(139.000000, 151.000000)" sketch:type="MSShapeGroup">
                <path d="M31,52 C40.9411255,52 49,43.9411255 49,34 C49,24.0588745 40.9411255,16 31,16 C21.0588745,16 13,24.0588745 13,34 C13,43.9411255 21.0588745,52 31,52 Z" id="Oval-41"></path>
                <path d="M31,19 C22.7157288,19 16,25.7157288 16,34" id="Oval-50"></path>
                <path d="M23.1596549,50.0974736 C24.7581138,58.7174512 27.5602752,64.4330127 30.75,64.4330127 C35.7205627,64.4330127 39.75,50.5538399 39.75,33.4330127 C39.75,16.3121855 35.7205627,2.4330127 30.75,2.4330127 C27.4035993,2.4330127 24.4837705,8.72384853 22.9329203,18.0594532" id="Oval-42" transform="translate(31.250000, 33.433013) rotate(-300.000000) translate(-31.250000, -33.433013) "></path>
                <circle id="Oval-43" cx="12" cy="8" r="8"></circle>
            </g>
        </g>
    </g>
</svg>